<?xml version="1.0" encoding="UTF-8"?>
<svg version="1.1" xmlns="http://www.w3.org/2000/svg" width="1600" height="1600">
<path d="M0 0 C0.88300781 0.68320312 1.76601563 1.36640625 2.67578125 2.0703125 C25.48197509 20.07010905 42.4424744 43.52926774 52 71 C52.22526367 71.64195313 52.45052734 72.28390625 52.68261719 72.9453125 C64.17650378 106.39399815 62.45277824 142.57932869 47.28125 174.50390625 C40.69183665 187.77777256 32.20459023 199.64473836 23.35546875 211.48046875 C1.12147083 241.28696074 -16.35163479 278.45825429 -11.25 316.5625 C-8.56086672 332.21176175 -0.82805565 347.06723081 12.3046875 356.453125 C23.21878037 363.80730109 34.84805343 368.42649601 47.25 372.6875 C60.12026505 377.20636286 72.62991707 382.25510974 85 388 C86.23459961 388.57089355 86.23459961 388.57089355 87.49414062 389.15332031 C115.67465536 402.33672282 141.86644522 419.43143036 166 439 C166.95003906 439.75667969 167.90007813 440.51335937 168.87890625 441.29296875 C175.31718405 446.46740255 181.42301429 451.956428 187.46630859 457.57958984 C189.01775988 459.0164481 190.57921655 460.44154671 192.14453125 461.86328125 C199.86468508 468.87754418 207.36624674 475.96807747 214.16796875 483.890625 C216.15311587 486.17629546 218.2003983 488.39701378 220.25 490.625 C225.83621393 496.82560294 230.92805608 503.37829543 236 510 C236.49435547 510.64275879 236.98871094 511.28551758 237.49804688 511.94775391 C244.31398127 520.83171473 250.78815244 529.87771005 256.88037109 539.2734375 C257.97234581 540.95735489 259.07394506 542.63501869 260.17578125 544.3125 C265 551.7373497 265 551.7373497 265 554 C265.58007812 554.24363281 266.16015625 554.48726562 266.7578125 554.73828125 C269.39371214 556.22154881 270.90920072 557.8940675 272.875 560.1875 C273.58140625 560.99316406 274.2878125 561.79882812 275.015625 562.62890625 C277 565 277 565 278.359375 566.90234375 C285.13573655 576.12572475 297.42366815 579.7757439 308.234375 581.56640625 C340.2523919 585.25312811 377.03293212 573.6813578 402.68359375 554.296875 C409.02285603 549.26485923 413.95430593 544.04413762 418 537 C434.17055533 510.54201384 455.18666933 491.36614695 485.5625 482.25 C486.22217773 482.05124268 486.88185547 481.85248535 487.56152344 481.64770508 C519.73740553 472.50665139 555.9902118 477.5774906 585.16894531 493.52636719 C612.05965282 508.8758877 631.86078932 533.36470622 640.22265625 563.22265625 C648.47951961 594.48282613 644.42435166 628.56256894 628.08984375 656.6484375 C610.33721308 685.11901155 582.82710665 706.18961505 550 714 C540.48302023 716.09402438 531.07075079 716.39543516 521.375 716.375 C520.62531952 716.37611786 519.87563904 716.37723572 519.10324097 716.37838745 C509.01738353 716.37098553 499.55264269 715.80520053 489.81640625 712.97265625 C441.3970107 700.63240089 374.43780951 718.7576056 332 743 C331.11260887 743.44753632 331.11260887 743.44753632 330.20729065 743.90411377 C327.3054136 745.5901977 325.35548449 746.86072738 324.32914734 750.14997864 C324.044356 752.85895029 323.97892987 755.49864369 323.984375 758.22265625 C323.95809021 759.22835159 323.93180542 760.23404694 323.90472412 761.2702179 C323.85150873 763.42086177 323.81332938 765.57192098 323.78881836 767.7230835 C323.72398842 773.30019109 323.54975788 778.87414764 323.390625 784.44921875 C323.36250732 785.54284729 323.33438965 786.63647583 323.30541992 787.76324463 C323.06965236 796.35723219 322.48507764 804.833847 321.5 813.375 C321.32162598 814.95293335 321.32162598 814.95293335 321.13964844 816.56274414 C320.34935781 823.09125533 319.24363554 829.54351142 318 836 C312.14290444 836.26838443 307.04094607 835.32067014 301.375 833.875 C300.4890918 833.64981689 299.60318359 833.42463379 298.69042969 833.19262695 C291.3465941 831.24304847 284.74173994 828.5089538 278 825 C275.85383621 823.92027205 273.70396577 822.8481661 271.55371094 821.77661133 C270.13013724 821.064984 268.70879956 820.34886111 267.29003906 819.62768555 C259.41196217 815.63254385 251.84752352 814.53413579 243.1328125 816.71875 C234.06475154 820.13649942 229.00107192 825.28823209 225 834 C221.6501543 842.77340541 222.24246616 850.80375753 225.76171875 859.40234375 C233.6102637 875.86695697 255.52327261 883.87793106 271.8359375 889.828125 C324.09285733 907.6989029 374.54103867 896.46470509 423 873 C429.80978513 869.59510744 436.49068214 865.9554408 443.140625 862.25 C468.76451968 848.54738252 507.5378792 849.15879471 535 857 C535.7724707 857.21430664 536.54494141 857.42861328 537.34082031 857.64941406 C548.53945194 860.84039703 558.78976205 865.44853182 569 871 C570.04671875 871.55429687 571.0934375 872.10859375 572.171875 872.6796875 C580.4660945 877.26564484 587.71754498 882.98284537 595 889 C595.79792969 889.65355469 596.59585937 890.30710937 597.41796875 890.98046875 C602.10161597 894.93937365 606.07923188 899.29507826 610 904 C610.68835937 904.78890625 611.37671875 905.5778125 612.0859375 906.390625 C637.80852408 936.53569137 649.31896275 974.71206585 647 1014 C643.55785191 1053.77346603 623.60919393 1089.32135537 593.921875 1115.5703125 C564.44360959 1140.08298775 526.28727363 1154.18417365 487.69628906 1150.79785156 C447.15101242 1146.26239428 406.30028879 1124.44097469 380.30175781 1092.79467773 C374.37740392 1084.62702479 370.40304223 1075.70693803 366.875 1066.3125 C366.17001261 1064.48180693 365.46499948 1062.65112356 364.75897217 1060.8208313 C364.01408662 1058.88586576 363.27357126 1056.94927804 362.53417969 1055.01220703 C331.74164531 971.809978 331.74164531 971.809978 267.02197266 914.88867188 C246.86290652 906.02861383 224.21424994 905.35661787 203.5 912.8125 C195.22763094 916.46167109 190.68197416 921.83061982 187 930 C183.67392475 938.71114946 184.20607873 946.83213105 187.6875 955.390625 C191.31356257 962.59958272 196.30148429 967.10605686 203.77734375 970.16015625 C211.96622094 972.29422728 220.68644466 971.64506621 228.875 969.8125 C234.5589064 968.65702725 238.85689032 969.27100303 244 972 C247.60075967 974.75382774 250.81714767 977.77806001 254 981 C254.75539063 981.75410156 255.51078125 982.50820313 256.2890625 983.28515625 C256.85367188 983.85105469 257.41828125 984.41695312 258 985 C256.3781946 989.92299509 253.55399456 993.77092646 250.5625 997.9375 C250.02826416 998.68676758 249.49402832 999.43603516 248.94360352 1000.20800781 C234.31317923 1020.57877416 217.81741202 1039.37061165 200.09326172 1057.09204102 C198.49546107 1058.69204519 196.90588449 1060.29993615 195.31640625 1061.90820312 C188.86748679 1068.3918259 182.17446544 1074.31296003 175 1080 C173.97226158 1080.863164 172.94884083 1081.73155286 171.93359375 1082.609375 C163.35680695 1089.96474146 154.25007161 1096.52350422 145 1103 C144.36723145 1103.4434375 143.73446289 1103.886875 143.08251953 1104.34375 C68.80648193 1156 68.80648193 1156 39 1156 C20.13188587 1105.36362823 20.13188587 1105.36362823 24 1096.78125 C25.3125 1094.6875 25.3125 1094.6875 26.67578125 1092.94921875 C30.94203348 1086.66939615 30.68549976 1079.27486621 30 1072 C29.10555364 1068.37647582 27.78426564 1065.27115367 26 1062 C25.61070312 1061.27941406 25.22140625 1060.55882812 24.8203125 1059.81640625 C20.45345028 1052.98187929 13.12828726 1049.25172692 5.359375 1047.35546875 C-3.80213807 1045.97517456 -12.08123926 1047.55724259 -19.625 1053.0625 C-30.55868774 1062.29625042 -37.65632194 1074.642892 -39 1089 C-40.45148157 1110.46746403 -35.80404076 1130.76442261 -29 1151 C-28.65727051 1152.02270996 -28.31454102 1153.04541992 -27.96142578 1154.09912109 C-18.8658753 1180.9471445 -7.4500955 1206.77079949 3.96789551 1232.68475342 C57.64069403 1354.53903516 57.64069403 1354.53903516 60 1401 C60.03851074 1401.67756348 60.07702148 1402.35512695 60.11669922 1403.05322266 C61.01194944 1420.98940487 57.96293851 1439.10921867 52 1456 C51.77441406 1456.6398584 51.54882812 1457.2797168 51.31640625 1457.93896484 C43.81527269 1478.73130186 32.29669625 1496.163928 17 1512 C16.13761719 1512.92554688 15.27523437 1513.85109375 14.38671875 1514.8046875 C-1.15375993 1531.05887705 -20.88539911 1542.53809534 -42 1550 C-43.06347656 1550.37769531 -44.12695312 1550.75539063 -45.22265625 1551.14453125 C-81.84787506 1563.2621687 -121.64991773 1558.80528096 -156.0078125 1542.01904297 C-170.70017625 1534.4615431 -183.18854275 1524.41991723 -195 1513 C-195.66515625 1512.38640625 -196.3303125 1511.7728125 -197.015625 1511.140625 C-215.07180259 1494.09694335 -227.47030287 1469.71311062 -234 1446 C-234.21172852 1445.23719727 -234.42345703 1444.47439453 -234.64160156 1443.68847656 C-240.33284047 1422.10506182 -240.64830815 1395.66224993 -235 1374 C-234.81727539 1373.27345215 -234.63455078 1372.5469043 -234.44628906 1371.79833984 C-229.40660325 1352.42161682 -220.68029153 1333.54660974 -208 1318 C-207.53480957 1317.41959961 -207.06961914 1316.83919922 -206.59033203 1316.24121094 C-196.94168869 1304.28114852 -186.42615853 1294.39678843 -173.64819336 1285.84301758 C-169.52530141 1283.07969183 -165.69661994 1280.23471836 -162.0390625 1276.8671875 C-159.3195335 1274.37689083 -156.50456325 1272.00333031 -153.6875 1269.625 C-152.84384888 1268.90908691 -152.84384888 1268.90908691 -151.9831543 1268.17871094 C-148.58111862 1265.30055451 -145.12223639 1262.51234767 -141.625 1259.75 C-113.02033301 1236.41461377 -88.59325387 1202.62137633 -84.19628906 1165.18041992 C-81.0629072 1130.37415942 -93.37675559 1096.83052561 -114 1069 C-114.64324219 1068.10152344 -115.28648437 1067.20304687 -115.94921875 1066.27734375 C-121.26754473 1059.18275958 -127.43050864 1053.73730515 -136 1051 C-144.77903402 1050.19681178 -153.40571775 1049.96859147 -161 1055 C-161.63292969 1055.4125 -162.26585937 1055.825 -162.91796875 1056.25 C-169.28639026 1061.02971082 -172.78669598 1068.21769643 -174 1076 C-175.29403539 1088.43122523 -170.23936319 1096.97398248 -163.28759766 1106.74243164 C-151.9778983 1122.80129905 -145.24440287 1140.11011726 -147 1160 C-147.68017519 1163.7907853 -148.44862981 1167.46316063 -150 1171 C-154.43942929 1173.21971464 -160.86619667 1170.55535771 -165.625 1169.625 C-166.31072083 1169.49195465 -166.99644165 1169.3589093 -167.70294189 1169.22183228 C-205.73038649 1161.76811026 -242.62379305 1148.92817858 -277.00585938 1131.03173828 C-279.11539073 1129.94029858 -281.23666031 1128.87414434 -283.359375 1127.80859375 C-308.88091629 1114.85618729 -332.28519462 1098.67858482 -354.26904297 1080.42675781 C-355.79202839 1079.17142258 -357.33405915 1077.93926912 -358.87890625 1076.7109375 C-368.3519762 1069.17201149 -377.32696292 1060.85837778 -385.75 1052.16015625 C-387.75473684 1050.23546967 -389.10510598 1049.22542991 -391.625 1048.1875 C-396.32678416 1046.0236107 -400.2160211 1042.96995428 -404.2890625 1039.8046875 C-411.45978637 1035.03109322 -419.65852796 1035.03628434 -428 1036 C-443.42568875 1039.3911279 -456.30323741 1047.63088718 -468 1058 C-468.73863281 1058.64026123 -468.73863281 1058.64026123 -469.4921875 1059.29345703 C-476.77842633 1065.61574865 -483.09858561 1072.34739403 -489 1080 C-517.1430937 1116.26351604 -551.8350824 1140.59170376 -598 1147.3125 C-638.51732492 1151.53898124 -677.84278274 1140.18267422 -709.65625 1114.671875 C-740.21190316 1089.84540681 -761.25914815 1054.81380902 -765.8125 1015.33374023 C-768.31358029 984.20375777 -763.0638183 955.3135167 -748 928 C-747.65066406 927.35933594 -747.30132813 926.71867188 -746.94140625 926.05859375 C-741.95428426 917.01600993 -736.2071045 909.12963776 -729.30371094 901.45947266 C-728.09931301 900.11117849 -726.92697501 898.73442871 -725.7578125 897.35546875 C-711.92644797 881.26954114 -694.17229821 869.72779565 -675 861 C-673.21529297 860.18208984 -673.21529297 860.18208984 -671.39453125 859.34765625 C-637.73457409 844.92196032 -597.80639473 844.79397659 -563.76123047 857.84472656 C-543.80632411 866.19367589 -543.80632411 866.19367589 -539 871 C-525.89068765 872.05687479 -513.88678389 869.54512163 -503 862 C-498.23587889 857.67505638 -495.1902464 853.2976043 -494.8125 846.75 C-494.69119034 844.08968674 -494.69119034 844.08968674 -496 843 C-496.43550972 839.98428619 -496.81430361 836.9798753 -497.15625 833.953125 C-497.2634436 833.03094177 -497.37063721 832.10875854 -497.4810791 831.15863037 C-497.70837323 829.19502254 -497.93352599 827.23116587 -498.15673828 825.26708984 C-498.49388541 822.303744 -498.83813883 819.34129374 -499.18359375 816.37890625 C-499.81556576 810.92203989 -500.41875306 805.46249321 -501 800 C-501.12213867 798.85587646 -501.24427734 797.71175293 -501.37011719 796.53295898 C-502.37144679 785.58069058 -502.2438747 774.55107933 -502.25 763.5625 C-502.25067474 762.47352417 -502.25134949 761.38454834 -502.25204468 760.26257324 C-502.23475269 742.64931453 -501.56473735 725.45022274 -499 708 C-498.82839355 706.81180664 -498.65678711 705.62361328 -498.47998047 704.39941406 C-492.95039054 667.22910535 -482.43524976 631.25899341 -467 597 C-466.51692383 595.92685547 -466.03384766 594.85371094 -465.53613281 593.74804688 C-457.79678527 576.74620862 -448.91557936 560.80909369 -439 545 C-435.39232941 548.43527279 -433.17446891 551.99046584 -431 556.4375 C-430.65042236 557.1490625 -430.30084473 557.860625 -429.94067383 558.59375 C-425.99512951 566.82921054 -423.43546653 575.08996351 -421.96923828 584.09619141 C-420.39658942 593.65031209 -417.86549227 601.22232592 -410.0625 607.4375 C-402.1410991 612.74843924 -394.42391663 614.90912596 -385 613.375 C-376.54243663 611.39193778 -369.80362698 607.30795689 -365 600 C-358.65563591 588.71435233 -358.97572695 576.54175268 -362 564.25 C-362.22002686 563.34749512 -362.44005371 562.44499023 -362.66674805 561.51513672 C-372.10892851 524.53406368 -392.81765852 494.12129269 -425.390625 473.89453125 C-428.88336986 471.83317384 -432.41219425 469.88862249 -436 468 C-436.88437744 467.52530273 -436.88437744 467.52530273 -437.78662109 467.04101562 C-460.47909587 455.02771086 -486.17248896 448.8334165 -511 443 C-516.03886842 441.8048905 -521.07486301 440.59793219 -526.10995483 439.38702393 C-528.16684712 438.89489503 -530.22542835 438.41048713 -532.28442383 437.92724609 C-557.81062021 431.87760281 -557.81062021 431.87760281 -568.6875 425.75 C-569.39044189 425.36432861 -570.09338379 424.97865723 -570.81762695 424.58129883 C-592.64423998 412.38108669 -611.74825224 395.28419829 -625 374 C-625.5583252 373.10571289 -625.5583252 373.10571289 -626.12792969 372.19335938 C-646.30667959 339.33623038 -653.94446129 298.7871082 -645 261 C-639.34379783 237.50790698 -628.72032657 216.37084675 -613 198 C-612.31421875 197.19175781 -611.6284375 196.38351563 -610.921875 195.55078125 C-584.29211107 165.04150135 -547.38958799 146.84933673 -507 144 C-467.83504377 141.7359001 -429.25108335 156.19896419 -400 182 C-369.83492687 209.42818796 -350.71991505 246.41183348 -348.6796875 287.421875 C-348.28564587 300.36551084 -350.07061685 312.42527533 -353 325 C-353.24024902 326.07822021 -353.24024902 326.07822021 -353.48535156 327.17822266 C-355.1871693 334.80027047 -357.35286045 342.13283697 -359.9375 349.5 C-372.0568328 384.2551561 -374.33950917 425.67943928 -358.50610352 459.63574219 C-355.36668703 466.0554966 -351.62312774 471.57940967 -347 477 C-346.37480469 477.825 -345.74960937 478.65 -345.10546875 479.5 C-336.34826117 489.89816856 -321.37416007 497.26922634 -308 499 C-287.64855041 500.50706099 -269.10355502 497.0204279 -252.20703125 485.015625 C-246.99289736 480.25369034 -243.7026307 473.01398019 -243 466 C-242.76820647 456.1692275 -245.57177622 449.31965758 -250.8125 441.1875 C-257.04263929 434.95736071 -264.56732326 431.75105017 -273.375 431.5 C-282.01777882 431.5738699 -289.1987448 434.59581591 -297 438 C-304.69090164 430.90756256 -306.55772036 422.19454573 -307 412 C-217.07200101 357.43965699 -217.07200101 357.43965699 -175 359 C-172.15023596 372.8925997 -175.45888512 385.13717891 -183 397 C-184.22004639 398.6733545 -185.44915264 400.34014329 -186.6875 402 C-192.20999383 409.76332836 -193.78796016 417.65928694 -192.62890625 427.078125 C-190.75125284 435.80163276 -186.32996143 441.98770257 -179 447 C-171.70157966 451.07808642 -163.33050677 452.37754669 -155.21875 450.28125 C-146.16533861 447.19712085 -140.06862007 442.92542182 -134.5625 435.125 C-133.85927612 434.14043823 -133.85927612 434.14043823 -133.1418457 433.13598633 C-116.13858282 408.82198765 -109.07970246 380.32643663 -113.6875 350.76953125 C-114.52428367 346.42926527 -115.68117063 342.21621159 -117 338 C-117.20898926 337.30970703 -117.41797852 336.61941406 -117.63330078 335.90820312 C-127.80821978 302.95213591 -148.19210935 274.77359561 -169.38330078 248.04150391 C-170.89655922 246.13062093 -172.40142123 244.21354858 -173.90234375 242.29296875 C-178.04065505 237.0003946 -182.20826096 231.73396225 -186.42504883 226.50366211 C-228.75456277 173.92487119 -228.75456277 173.92487119 -234.6875 147.3125 C-234.89955078 146.40177734 -235.11160156 145.49105469 -235.33007812 144.55273438 C-243.70347091 108.17998399 -235.13159092 71.48268387 -216 40 C-202.7169558 19.57402077 -185.04122973 2.27037085 -164 -10 C-163.36255859 -10.37753418 -162.72511719 -10.75506836 -162.06835938 -11.14404297 C-112.18862086 -40.33029821 -45.24612697 -36.75786497 0 0 Z M-66 552 C-66.84304688 552.71027344 -67.68609375 553.42054688 -68.5546875 554.15234375 C-86.39270723 569.57762221 -98.05658859 591.09635519 -103 614 C-103.33837891 615.56621094 -103.33837891 615.56621094 -103.68359375 617.1640625 C-108.83028505 645.2046565 -102.25192471 674.20547782 -87.0234375 698.1015625 C-68.92389407 723.70051834 -43.12339011 741.14695176 -12.11816406 746.59204102 C-6.33976496 747.34804672 -0.56982574 747.33876344 5.25 747.3125 C7.17706787 747.30512817 7.17706787 747.30512817 9.14306641 747.29760742 C18.14693105 747.18624413 26.33070035 746.57792124 35 744 C36.21945312 743.6596875 37.43890625 743.319375 38.6953125 742.96875 C66.93036684 734.3880764 89.70284984 714.62582422 104 689 C118.09918165 662.46427604 120.43989736 632.66561276 112.25 603.8203125 C106.58969271 585.88675721 97.03720537 571.36948797 84 558 C83.03513672 556.92492187 83.03513672 556.92492187 82.05078125 555.828125 C65.88632168 538.29617319 39.10395982 527.1865764 15.52929688 525.86108398 C-14.85799683 524.76699087 -42.72967287 531.76326337 -66 552 Z M-282 813 C-283.28390625 814.01900391 -283.28390625 814.01900391 -284.59375 815.05859375 C-298.96326784 827.14406786 -308.6548318 845.37266401 -311 864 C-312.3699793 886.24426318 -308.68613697 907.4364426 -293.88671875 924.9296875 C-292.95279297 925.95449219 -292.95279297 925.95449219 -292 927 C-291.28457031 927.80695313 -290.56914063 928.61390625 -289.83203125 929.4453125 C-275.30616791 944.94272625 -256.43902151 952.60564231 -235.43359375 954.28515625 C-216.29474499 954.78594524 -197.92113397 949.12501006 -183 937 C-182.17113281 936.33355469 -181.34226562 935.66710937 -180.48828125 934.98046875 C-164.22126467 921.15475022 -155.59879809 902.97275652 -153 882 C-151.68517057 859.74904044 -157.83828436 839.3788212 -172.36816406 822.40136719 C-185.36365452 807.79818719 -203.72404513 797.29389953 -223.46435547 795.81542969 C-245.21307295 794.71712933 -264.77700733 799.04431036 -282 813 Z M1.6875 877.8125 C-7.66726799 890.2037955 -11.17485465 904.85288697 -9.56640625 920.1796875 C-7.34194608 935.18328782 0.20267803 948.44978698 12 958 C24.9311847 967.04153316 39.38417263 971.68108213 55.1953125 969.57421875 C71.05689359 966.68223025 84.42285452 959.31433843 93.69018555 945.98291016 C102.96212785 931.93266006 105.98231655 916.62266939 102.875 900.0625 C100.06917176 888.17669982 94.64586582 879.52366277 86 871 C85.43539062 870.42507813 84.87078125 869.85015625 84.2890625 869.2578125 C74.43969807 859.98499623 60.77188609 856.09273167 47.5 855.625 C29.27201348 856.267396 13.46308359 863.92391449 1.6875 877.8125 Z " fill="#000000" transform="translate(883,30)"/>
<path d="M0 0 C8.1305449 5.41503874 14.46743854 12.00585752 16.609375 21.80859375 C17.01879693 24.52681769 17.26807404 27.24872846 17.52734375 29.98461914 C18.6004272 40.61485206 21.58868092 50.19785379 29.80078125 57.578125 C40.35315553 66.0011809 51.72625915 72.90326734 63.27734375 79.86328125 C79.18593496 89.46576423 94.4484504 99.50369142 107.98828125 112.32421875 C108.89578125 113.16726563 109.80328125 114.0103125 110.73828125 114.87890625 C132.91784569 136.13432217 143.41298066 164.89276399 144.34204102 195.2409668 C144.65539525 227.81900197 132.1338777 256.79698972 109.98828125 280.32421875 C109.39917969 280.989375 108.81007813 281.65453125 108.203125 282.33984375 C88.08905349 304.08956503 57.8546742 313.67242464 29.11328125 315.5078125 C-1.49549266 316.30102768 -32.31092218 305.58410935 -54.8828125 284.81640625 C-78.74210942 262.14756949 -90.51056714 233.85076497 -92.01171875 201.13671875 C-93.39883564 176.05641878 -96.59216155 147.62288887 -113.359375 127.5078125 C-116.43749964 124.97368633 -118.41712659 124.4903294 -122.32421875 123.88671875 C-131.3651351 122.04996373 -136.54085865 117.81501802 -141.76171875 110.32421875 C-146.66606542 102.47726407 -147.87157066 95.27623621 -145.94921875 86.32421875 C-142.39983751 73.70062754 -133.82277493 66.85940198 -123.13671875 60.13671875 C-121.62881569 59.17462109 -120.12100581 58.21237738 -118.61328125 57.25 C-117.84918945 56.7648291 -117.08509766 56.2796582 -116.29785156 55.77978516 C-112.68899629 53.48204966 -109.10106966 51.15225492 -105.51171875 48.82421875 C-104.09516138 47.90738319 -102.67849446 46.99071688 -101.26171875 46.07421875 C-100.20984375 45.39359375 -100.20984375 45.39359375 -99.13671875 44.69921875 C-97.01171875 43.32421875 -94.88671875 41.94921875 -92.76171875 40.57421875 C-92.06111328 40.12087158 -91.36050781 39.66752441 -90.63867188 39.20043945 C-89.21554714 38.27962286 -87.79236968 37.35888777 -86.36914062 36.43823242 C-82.92585504 34.21070966 -79.48335747 31.98199476 -76.04296875 29.75 C-67.40218551 24.14650634 -58.74280036 18.57210738 -50.07421875 13.01171875 C-49.03201172 12.34180908 -47.98980469 11.67189941 -46.91601562 10.98168945 C-43.95485632 9.08460808 -40.9867404 7.19947895 -38.01171875 5.32421875 C-37.09890137 4.74881348 -36.18608398 4.1734082 -35.24560547 3.58056641 C-24.6334049 -2.96603686 -11.71120844 -6.28567685 0 0 Z " fill="#000000" transform="translate(1161.01171875,1145.67578125)"/>
<path d="M0 0 C25.80397849 22.61734259 41.06044455 54.96780646 43.31591797 89.06201172 C44.93674563 122.0502261 33.65185805 153.89642855 11.84375 178.6484375 C10.28891891 180.32226076 8.72615814 181.98874703 7.15625 183.6484375 C6.34671875 184.53402344 5.5371875 185.41960937 4.703125 186.33203125 C-14.78945495 206.90429003 -43.55081809 220.94698153 -71.875 223.05859375 C-72.75816895 223.12788086 -73.64133789 223.19716797 -74.55126953 223.26855469 C-76.279714 223.39321277 -78.01019479 223.49310383 -79.74169922 223.56347656 C-89.97715107 224.26456299 -95.64319349 231.1204007 -102.15625 238.3984375 C-103.35790592 239.72907031 -104.56222752 241.05730191 -105.76953125 242.3828125 C-106.28942627 242.96256836 -106.80932129 243.54232422 -107.3449707 244.13964844 C-108.84375 245.6484375 -108.84375 245.6484375 -111.84375 247.6484375 C-116.54134803 247.15503427 -119.07459999 243.75733095 -122.19140625 240.5234375 C-123.1093119 239.59204956 -123.1093119 239.59204956 -124.04576111 238.6418457 C-126.00654763 236.65104706 -127.95720719 234.65073021 -129.90625 232.6484375 C-141.23005087 221.02764157 -141.23005087 221.02764157 -153.53540039 210.47436523 C-155.85449892 208.639935 -158.03952875 206.70846934 -160.21875 204.7109375 C-165.83100126 199.68267711 -171.80423302 195.14462608 -177.84375 190.6484375 C-178.51051758 190.15182617 -179.17728516 189.65521484 -179.86425781 189.14355469 C-194.67070152 178.17049446 -209.99353176 168.04958775 -225.84375 158.6484375 C-225.19127009 154.93653495 -224.59832093 153.04197475 -222.03125 150.2734375 C-212.42539687 137.99545256 -212.85260727 117.86185893 -212.40625 103.0234375 C-211.47825164 73.62343463 -205.54683011 46.69658197 -187.84375 22.6484375 C-187.26496094 21.84664062 -186.68617187 21.04484375 -186.08984375 20.21875 C-165.64203826 -6.72112332 -136.19144966 -25.06805253 -102.65625 -30.2890625 C-64.97333542 -35.40508875 -29.15224868 -24.10666717 0 0 Z " fill="#000000" transform="translate(1258.84375,224.3515625)"/>
<path d="M0 0 C3.33041806 2.83004305 6.26720327 6.01642825 9.27050781 9.18505859 C17.36943184 17.68730108 23.68956978 22.77784123 35.14453125 25.79296875 C36.2325 26.11136719 37.32046875 26.42976562 38.44140625 26.7578125 C50.42323214 29.92861277 62.08212906 30.88249096 73.9765625 27.23046875 C76.89006497 26.6425187 79.67433407 26.66115637 82.64453125 26.66796875 C83.76859375 26.66539062 84.89265625 26.6628125 86.05078125 26.66015625 C88.61660115 26.77030508 90.70719552 27.04026213 93.14453125 27.79296875 C92.50749519 34.20819102 90.57181562 39.99408862 88.58203125 46.10546875 C76.48904598 84.5158923 69.97470857 124.22909953 68.01953125 164.41796875 C67.93278196 166.11851467 67.84554424 167.81903574 67.7578125 169.51953125 C67.54779004 173.61041449 67.34425264 177.70157021 67.14453125 181.79296875 C66.01668213 181.71353027 64.88883301 181.6340918 63.72680664 181.55224609 C35.40365401 179.65245874 12.67036834 188.62594414 -12.45776367 200.99560547 C-44.62230484 216.78384515 -76.94100258 223.04323192 -111.73046875 211.60546875 C-142.60200828 200.92627659 -166.58876951 178.59152819 -181.60546875 149.85546875 C-188.51163897 135.54754665 -193.08047733 119.71551982 -193.85546875 103.79296875 C-193.90832031 102.73335937 -193.96117187 101.67375 -194.015625 100.58203125 C-194.84731872 67.24196131 -182.77142269 36.3630037 -160.09350586 12.05639648 C-118.39226232 -31.21327272 -47.70066092 -36.86849989 0 0 Z " fill="#000000" transform="translate(250.85546875,608.20703125)"/>
<path d="M0 0 C5.08216151 1.56977962 8.57678842 4.69665569 12.625 8 C28.98363568 21.02999394 46.82720382 32.66409722 65 43 C65.64001953 43.36931641 66.28003906 43.73863281 66.93945312 44.11914062 C88.2051521 56.36672084 110.19968631 66.93769916 133 76 C133 79.99550915 131.04556989 81.74114512 128.625 84.6875 C112.24025026 105.36762376 102.491499 126.58669672 100.77905273 153.0378418 C98.50736448 186.30099529 85.59793471 216.72266974 60.50048828 239.35205078 C35.48333291 260.77134105 3.54202858 269.64093305 -29 268 C-62.57691961 265.38281375 -91.33740594 249.06476133 -113.4921875 224.0625 C-131.43551135 202.15040358 -141.46645862 175.20782532 -141.3125 146.8125 C-141.30758545 145.72533691 -141.3026709 144.63817383 -141.29760742 143.51806641 C-140.84478799 112.0993645 -127.95409586 85.03040215 -105.95703125 62.94921875 C-88.13504425 46.26409396 -64.88309772 36.26130947 -40.84179688 32.94995117 C-32.24331004 31.75681252 -26.61405132 29.95148379 -20 24 C-19.17371094 23.34 -18.34742188 22.68 -17.49609375 22 C-10.26115121 15.99113169 -4.22259328 8.44518655 0 0 Z " fill="#000000" transform="translate(490,1161)"/>
</svg>
